<svg width="703" height="385" viewBox="0 0 703 385" fill="none" xmlns="http://www.w3.org/2000/svg">
<ellipse cx="124.932" cy="125.108" rx="124.932" ry="125.108" fill="#1C2D37"/>
<ellipse cx="597.561" cy="178.952" rx="104.872" ry="105.048" fill="#4EC7C4"/>
<circle cx="584.892" cy="127.747" r="27.0979" fill="#0C3D3A"/>
<circle cx="184.582" cy="69.5044" r="23.0508" fill="#4EC7C4"/>
<g filter="url(#filter0_dd_68_840)">
<g clip-path="url(#clip0_68_840)">
<rect x="171.717" y="99" width="358" height="246" rx="20" fill="white"/>
<path d="M192.717 123.694C190.416 123.694 188.55 121.828 188.55 119.527C188.55 117.226 190.416 115.36 192.717 115.36C195.018 115.36 196.884 117.226 196.884 119.527C196.884 121.828 195.018 123.694 192.717 123.694Z" fill="#E11D48"/>
<path d="M207.717 123.694C205.416 123.694 203.55 121.828 203.55 119.527C203.55 117.226 205.416 115.36 207.717 115.36C210.018 115.36 211.884 117.226 211.884 119.527C211.884 121.828 210.018 123.694 207.717 123.694Z" fill="#FBBF24"/>
<path d="M222.717 123.694C220.416 123.694 218.55 121.828 218.55 119.527C218.55 117.226 220.416 115.36 222.717 115.36C225.018 115.36 226.884 117.226 226.884 119.527C226.884 121.828 225.018 123.694 222.717 123.694Z" fill="#22C55E"/>
<path d="M471.474 119.5L476.424 124.45C476.519 124.542 476.596 124.653 476.648 124.775C476.7 124.897 476.728 125.028 476.729 125.161C476.73 125.293 476.705 125.425 476.655 125.548C476.605 125.671 476.53 125.782 476.436 125.876C476.342 125.97 476.231 126.045 476.108 126.095C475.985 126.145 475.853 126.17 475.721 126.169C475.588 126.168 475.457 126.141 475.335 126.088C475.213 126.036 475.102 125.96 475.01 125.864L469.353 120.207C469.165 120.019 469.06 119.765 469.06 119.5C469.06 119.235 469.165 118.981 469.353 118.793L475.01 113.136C475.199 112.954 475.451 112.853 475.713 112.855C475.976 112.858 476.226 112.963 476.412 113.148C476.597 113.334 476.702 113.584 476.705 113.847C476.707 114.109 476.606 114.361 476.424 114.55L471.474 119.5Z" fill="#94A3B8"/>
<path d="M503.031 119.571L498.081 114.621C497.899 114.432 497.798 114.18 497.8 113.918C497.802 113.655 497.908 113.405 498.093 113.219C498.278 113.034 498.529 112.929 498.791 112.926C499.054 112.924 499.306 113.025 499.495 113.207L505.152 118.864C505.339 119.052 505.445 119.306 505.445 119.571C505.445 119.836 505.339 120.09 505.152 120.278L499.495 125.935C499.306 126.117 499.054 126.218 498.791 126.216C498.529 126.213 498.278 126.108 498.093 125.923C497.908 125.737 497.802 125.487 497.8 125.224C497.798 124.962 497.899 124.71 498.081 124.521L503.031 119.571V119.571Z" fill="#475569"/>
<rect x="171.717" y="140" width="358" height="205" fill="#E0F2FE"/>
<path d="M171.717 140.273H231.683V345H171.717V140.273Z" fill="#BFDBFE"/>
<path d="M178.913 159.68C178.913 157.869 180.524 156.4 182.511 156.4H220.889C222.877 156.4 224.487 157.869 224.487 159.68V159.68C224.487 161.492 222.877 162.96 220.889 162.96H182.511C180.524 162.96 178.913 161.492 178.913 159.68V159.68Z" fill="#93C5FD"/>
<path d="M193.305 182.64C193.305 181.734 194.11 181 195.104 181H225.087C226.081 181 226.886 181.734 226.886 182.64V182.64C226.886 183.546 226.081 184.28 225.087 184.28H195.104C194.11 184.28 193.305 183.546 193.305 182.64V182.64Z" fill="#0B725B"/>
<path d="M193.305 200.133C193.305 199.228 194.11 198.493 195.104 198.493H215.792C216.786 198.493 217.591 199.228 217.591 200.133V200.133C217.591 201.039 216.786 201.773 215.792 201.773H195.104C194.11 201.773 193.305 201.039 193.305 200.133V200.133Z" fill="#0B725B"/>
<path d="M193.305 217.627C193.305 216.721 194.11 215.987 195.104 215.987H220.889C221.883 215.987 222.688 216.721 222.688 217.627V217.627C222.688 218.532 221.883 219.267 220.889 219.267H195.104C194.11 219.267 193.305 218.532 193.305 217.627V217.627Z" fill="#0B725B"/>
<path fill-rule="evenodd" clip-rule="evenodd" d="M183.71 186.193C185.863 186.193 187.608 184.602 187.608 182.64C187.608 180.678 185.863 179.087 183.71 179.087C181.557 179.087 179.812 180.678 179.812 182.64C179.812 184.602 181.557 186.193 183.71 186.193ZM183.71 187.013C186.36 187.013 188.507 185.055 188.507 182.64C188.507 180.225 186.36 178.267 183.71 178.267C181.061 178.267 178.913 180.225 178.913 182.64C178.913 185.055 181.061 187.013 183.71 187.013Z" fill="#93C5FD"/>
<path d="M250.873 159.68C250.873 158.472 251.947 157.493 253.271 157.493H288.052C289.377 157.493 290.451 158.472 290.451 159.68V159.68C290.451 160.888 289.377 161.867 288.052 161.867H253.271C251.947 161.867 250.873 160.888 250.873 159.68V159.68Z" fill="#BFDBFE"/>
<path fill-rule="evenodd" clip-rule="evenodd" d="M314.587 247.847C314.605 246.288 315.963 244.96 317.709 244.96C318.781 244.96 319.57 245.444 320.073 245.899C320.213 246.026 320.333 246.152 320.434 246.269C320.534 246.152 320.655 246.026 320.795 245.899C321.298 245.444 322.086 244.96 323.158 244.96C324.904 244.96 326.263 246.288 326.281 247.847L326.281 247.847C326.314 250.887 323.634 252.991 320.94 254.658C320.791 254.751 320.614 254.8 320.434 254.8C320.253 254.8 320.077 254.751 319.928 254.658C317.234 252.991 314.554 250.887 314.587 247.847L314.587 247.847ZM320.836 247.194C320.759 247.333 320.604 247.42 320.434 247.42C320.264 247.42 320.108 247.333 320.032 247.194C320.032 247.194 320.032 247.194 320.032 247.193C320.031 247.192 320.03 247.191 320.029 247.189C320.028 247.188 320.027 247.186 320.027 247.185C320.021 247.176 320.013 247.162 320.001 247.143C319.978 247.106 319.941 247.05 319.891 246.982C319.79 246.845 319.64 246.662 319.439 246.481C319.036 246.116 318.462 245.78 317.709 245.78C316.49 245.78 315.499 246.715 315.487 247.855M320.836 247.194C320.836 247.194 320.836 247.194 320.836 247.193C320.837 247.192 320.839 247.189 320.841 247.185C320.846 247.176 320.855 247.162 320.866 247.143C320.89 247.106 320.927 247.05 320.977 246.982C321.077 246.845 321.228 246.662 321.429 246.481C321.831 246.116 322.405 245.78 323.158 245.78C324.378 245.78 325.368 246.715 325.381 247.855C325.409 250.417 323.152 252.298 320.434 253.98L320.434 253.98L320.433 253.98C317.716 252.298 315.458 250.417 315.487 247.855" fill="#0B725B"/>
<path d="M250.873 249.88C250.873 248.672 251.947 247.693 253.271 247.693H269.462C270.787 247.693 271.861 248.672 271.861 249.88V249.88C271.861 251.088 270.787 252.067 269.462 252.067H253.271C251.947 252.067 250.873 251.088 250.873 249.88V249.88Z" fill="#BFDBFE"/>
<path d="M276.658 249.88C276.658 248.672 277.732 247.693 279.057 247.693H306.042C307.367 247.693 308.441 248.672 308.441 249.88V249.88C308.441 251.088 307.367 252.067 306.042 252.067H279.057C277.732 252.067 276.658 251.088 276.658 249.88V249.88Z" fill="#BFDBFE"/>
<path d="M250.873 271.2C250.873 270.294 251.678 269.56 252.672 269.56H277.858C278.851 269.56 279.657 270.294 279.657 271.2V271.2C279.657 272.106 278.851 272.84 277.858 272.84H252.672C251.678 272.84 250.873 272.106 250.873 271.2V271.2Z" fill="#0B725B"/>
<path d="M250.873 278.853C250.873 277.948 251.678 277.213 252.672 277.213H291.35C292.344 277.213 293.149 277.948 293.149 278.853V278.853C293.149 279.759 292.344 280.493 291.35 280.493H252.672C251.678 280.493 250.873 279.759 250.873 278.853V278.853Z" fill="#0B725B"/>
<path d="M284.454 271.2C284.454 270.294 285.259 269.56 286.253 269.56H316.236C317.23 269.56 318.035 270.294 318.035 271.2V271.2C318.035 272.106 317.23 272.84 316.236 272.84H286.253C285.259 272.84 284.454 272.106 284.454 271.2V271.2Z" fill="#0B725B"/>
<path d="M250.873 181C250.873 180.094 251.678 179.36 252.672 179.36H277.858C278.851 179.36 279.657 180.094 279.657 181V181C279.657 181.906 278.851 182.64 277.858 182.64H252.672C251.678 182.64 250.873 181.906 250.873 181V181Z" fill="#0B725B"/>
<path d="M250.873 188.653C250.873 187.748 251.678 187.013 252.672 187.013H314.737C315.731 187.013 316.536 187.748 316.536 188.653V188.653C316.536 189.559 315.731 190.293 314.737 190.293H252.672C251.678 190.293 250.873 189.559 250.873 188.653V188.653Z" fill="#0B725B"/>
<path d="M284.454 181C284.454 180.094 285.259 179.36 286.253 179.36H354.615C355.608 179.36 356.414 180.094 356.414 181V181C356.414 181.906 355.608 182.64 354.615 182.64H286.253C285.259 182.64 284.454 181.906 284.454 181V181Z" fill="#0B725B"/>
<path fill-rule="evenodd" clip-rule="evenodd" d="M187.908 196.58H180.112V203.687H187.908V196.58ZM179.213 195.76V204.507H188.807V195.76H179.213Z" fill="#60A5FA"/>
<g clip-path="url(#clip1_68_840)">
<rect x="379.501" y="159.68" width="59.9665" height="74.8933" rx="10" fill="#0B725B"/>
<path d="M419.446 234.638C419.446 253.59 402.733 268.953 382.116 268.953C361.5 268.953 344.786 253.59 344.786 234.638C344.786 215.687 361.5 200.323 382.116 200.323C402.733 200.323 419.446 215.687 419.446 234.638Z" fill="#4EC7C4"/>
<path fill-rule="evenodd" clip-rule="evenodd" d="M447.792 188.848L428.287 171.066L408.782 188.848L428.287 206.629L447.792 188.848ZM428.287 169.52L407.086 188.848L428.287 208.175L449.488 188.848L428.287 169.52Z" fill="#BFDBFE"/>
</g>
<path d="M184.01 213.8L188.807 221.375H179.213L184.01 213.8Z" fill="#93C5FD"/>
<rect x="449.062" y="159.68" width="59.9665" height="55.2133" rx="10" fill="#0B725B"/>
<path fill-rule="evenodd" clip-rule="evenodd" d="M476.037 200.849C482.016 200.849 486.822 196.471 486.822 191.117C486.822 185.763 482.016 181.385 476.037 181.385C470.059 181.385 465.253 185.763 465.253 191.117C465.253 196.471 470.059 200.849 476.037 200.849ZM476.037 203.582C483.649 203.582 489.82 198.001 489.82 191.117C489.82 184.233 483.649 178.652 476.037 178.652C468.425 178.652 462.255 184.233 462.255 191.117C462.255 198.001 468.425 203.582 476.037 203.582Z" fill="#BFDBFE"/>
<path d="M482.301 187.172L486.266 173.681L497.099 183.557L482.301 187.172Z" fill="#1C2D37"/>
<g clip-path="url(#clip2_68_840)">
<rect x="379.501" y="243.32" width="59.9665" height="83.64" rx="10" fill="#0B725B"/>
<path fill-rule="evenodd" clip-rule="evenodd" d="M435.719 337.62C452.527 337.62 466.152 325.199 466.152 309.877C466.152 294.554 452.527 282.133 435.719 282.133C418.912 282.133 405.286 294.554 405.286 309.877C405.286 325.199 418.912 337.62 435.719 337.62ZM435.719 340.353C454.183 340.353 469.151 326.708 469.151 309.877C469.151 293.045 454.183 279.4 435.719 279.4C417.256 279.4 402.288 293.045 402.288 309.877C402.288 326.708 417.256 340.353 435.719 340.353Z" fill="#437F75"/>
<path d="M410.983 268.255C410.983 273.422 406.352 277.61 400.639 277.61C394.926 277.61 390.295 273.422 390.295 268.255C390.295 263.088 394.926 258.9 400.639 258.9C406.352 258.9 410.983 263.088 410.983 268.255Z" fill="#BFDBFE"/>
<path fill-rule="evenodd" clip-rule="evenodd" d="M400.639 276.79C405.862 276.79 410.084 272.963 410.084 268.255C410.084 263.548 405.862 259.72 400.639 259.72C395.416 259.72 391.194 263.548 391.194 268.255C391.194 272.963 395.416 276.79 400.639 276.79ZM400.639 277.61C406.352 277.61 410.983 273.422 410.983 268.255C410.983 263.088 406.352 258.9 400.639 258.9C394.926 258.9 390.295 263.088 390.295 268.255C390.295 273.422 394.926 277.61 400.639 277.61Z" fill="#BFDBFE"/>
</g>
<g clip-path="url(#clip3_68_840)">
<rect x="449.062" y="223.64" width="59.9665" height="93.48" rx="10" fill="#0B725B"/>
<path d="M522.821 291.017C522.821 297.734 516.914 303.18 509.628 303.18C502.342 303.18 496.436 297.734 496.436 291.017C496.436 284.299 502.342 278.853 509.628 278.853C516.914 278.853 522.821 284.299 522.821 291.017Z" fill="#0B725B"/>
<path fill-rule="evenodd" clip-rule="evenodd" d="M509.628 302.36C516.408 302.36 521.921 297.29 521.921 291.017C521.921 284.743 516.408 279.673 509.628 279.673C502.848 279.673 497.335 284.743 497.335 291.017C497.335 297.29 502.848 302.36 509.628 302.36ZM509.628 303.18C516.914 303.18 522.821 297.734 522.821 291.017C522.821 284.299 516.914 278.853 509.628 278.853C502.342 278.853 496.436 284.299 496.436 291.017C496.436 297.734 502.342 303.18 509.628 303.18Z" fill="#BFDBFE"/>
<path d="M498.834 256.577C498.834 265.559 490.914 272.84 481.144 272.84C471.374 272.84 463.454 265.559 463.454 256.577C463.454 247.595 471.374 240.313 481.144 240.313C490.914 240.313 498.834 247.595 498.834 256.577Z" fill="#BFDBFE"/>
<path d="M460.156 287.873L461.002 290.092L463.578 290.14L461.525 291.559L462.271 293.807L460.156 292.465L458.041 293.807L458.787 291.559L456.734 290.14L459.31 290.092L460.156 287.873Z" fill="#FBBF24"/>
<path d="M472.449 287.873L473.295 290.092L475.871 290.14L473.818 291.559L474.564 293.807L472.449 292.465L470.334 293.807L471.08 291.559L469.027 290.14L471.603 290.092L472.449 287.873Z" fill="#FBBF24"/>
<path d="M484.742 287.873L485.588 290.092L488.164 290.14L486.111 291.559L486.857 293.807L484.742 292.465L482.627 293.807L483.373 291.559L481.32 290.14L483.896 290.092L484.742 287.873Z" fill="#FBBF24"/>
<path d="M497.035 287.873L497.881 290.092L500.457 290.14L498.404 291.559L499.15 293.807L497.035 292.465L494.92 293.807L495.666 291.559L493.613 290.14L496.189 290.092L497.035 287.873Z" fill="#FBBF24"/>
<path d="M509.328 287.873L510.174 290.092L512.75 290.14L510.697 291.559L511.443 293.807L509.328 292.465L507.214 293.807L507.96 291.559L505.906 290.14L508.482 290.092L509.328 287.873Z" fill="#FBBF24"/>
</g>
</g>
<rect x="174.217" y="101.5" width="353" height="241" rx="17.5" stroke="white" stroke-width="5"/>
</g>
<circle cx="516.993" cy="247.767" r="23.4946" fill="#0C3D3A"/>
<path d="M189.974 217.128C189.974 218.984 189.608 220.821 188.898 222.535C188.188 224.249 187.148 225.807 185.836 227.119C184.524 228.431 182.966 229.471 181.252 230.182C179.538 230.892 177.701 231.257 175.845 231.257C173.99 231.257 172.153 230.892 170.439 230.182C168.725 229.471 167.167 228.431 165.855 227.119C164.543 225.807 163.502 224.249 162.792 222.535C162.082 220.821 161.717 218.984 161.717 217.128L175.845 217.128H189.974Z" fill="#0B6953"/>
<defs>
<filter id="filter0_dd_68_840" x="151.717" y="89" width="398" height="296" filterUnits="userSpaceOnUse" color-interpolation-filters="sRGB">
<feFlood flood-opacity="0" result="BackgroundImageFix"/>
<feColorMatrix in="SourceAlpha" type="matrix" values="0 0 0 0 0 0 0 0 0 0 0 0 0 0 0 0 0 0 127 0" result="hardAlpha"/>
<feOffset/>
<feGaussianBlur stdDeviation="5"/>
<feColorMatrix type="matrix" values="0 0 0 0 0 0 0 0 0 0 0 0 0 0 0 0 0 0 0.07 0"/>
<feBlend mode="normal" in2="BackgroundImageFix" result="effect1_dropShadow_68_840"/>
<feColorMatrix in="SourceAlpha" type="matrix" values="0 0 0 0 0 0 0 0 0 0 0 0 0 0 0 0 0 0 127 0" result="hardAlpha"/>
<feMorphology radius="5" operator="erode" in="SourceAlpha" result="effect2_dropShadow_68_840"/>
<feOffset dy="20"/>
<feGaussianBlur stdDeviation="12.5"/>
<feColorMatrix type="matrix" values="0 0 0 0 0 0 0 0 0 0 0 0 0 0 0 0 0 0 0.1 0"/>
<feBlend mode="normal" in2="effect1_dropShadow_68_840" result="effect2_dropShadow_68_840"/>
<feBlend mode="normal" in="SourceGraphic" in2="effect2_dropShadow_68_840" result="shape"/>
</filter>
<clipPath id="clip0_68_840">
<rect x="171.717" y="99" width="358" height="246" rx="20" fill="white"/>
</clipPath>
<clipPath id="clip1_68_840">
<rect x="379.501" y="159.68" width="59.9665" height="74.8933" rx="10" fill="white"/>
</clipPath>
<clipPath id="clip2_68_840">
<rect x="379.501" y="243.32" width="59.9665" height="83.64" rx="10" fill="white"/>
</clipPath>
<clipPath id="clip3_68_840">
<rect x="449.062" y="223.64" width="59.9665" height="93.48" rx="10" fill="white"/>
</clipPath>
</defs>
</svg>
